<svg width="1001" height="275" viewBox="0 0 1001 275" fill="none" xmlns="http://www.w3.org/2000/svg">
<g clip-path="url(#clip0_7999_3595)">
<path d="M348.801 72.5C349.801 73.7 350.501 74.6667 350.901 75.4C351.301 76.1333 351.501 76.8333 351.501 77.5C351.501 78.3 350.967 79.2333 349.901 80.3C348.901 81.3667 347.901 81.9 346.901 81.9C345.567 81.9 344.501 81.7 343.701 81.3C342.901 80.9 342.234 80.2667 341.701 79.4C340.634 77.8 339.334 76.4333 337.801 75.3C336.267 74.1 333.867 73.5 330.601 73.5C327.801 73.5 324.601 74.1333 321.001 75.4C317.467 76.6667 314.934 78.2333 313.401 80.1C312.067 81.7667 310.901 84.3 309.901 87.7C308.967 91.1 308.501 94.4 308.501 97.6C308.501 101.467 309.334 105.033 311.001 108.3C312.734 111.5 315.201 114.067 318.401 116C321.667 117.933 325.567 118.9 330.101 118.9C332.567 118.9 335.101 118.433 337.701 117.5C340.367 116.5 342.667 114.9 344.601 112.7H344.501C345.701 111.433 347.201 110.8 349.001 110.8C350.067 110.8 351.067 111.267 352.001 112.2C353.001 113.133 353.501 114.067 353.501 115C353.501 116 353.334 116.9 353.001 117.7C352.734 118.433 352.201 119.267 351.401 120.2C348.667 123.267 345.434 125.367 341.701 126.5C337.967 127.633 333.501 128.2 328.301 128.2C323.701 128.2 319.034 127.1 314.301 124.9C309.634 122.7 306.034 120.033 303.501 116.9C302.167 114.967 300.867 112.2 299.601 108.6C298.401 104.933 297.801 101.967 297.801 99.7C297.801 93.9 298.667 88.4 300.401 83.2C302.201 77.9333 304.867 73.7333 308.401 70.6C310.734 68.4667 314.101 66.8667 318.501 65.8C322.901 64.7333 326.934 64.2 330.601 64.2C335.067 64.2 338.567 64.8333 341.101 66.1C343.701 67.3 346.267 69.4333 348.801 72.5ZM359.58 94.3C359.046 94.3 358.546 94.1 358.08 93.7C357.68 93.2333 357.48 92.7 357.48 92.1C357.48 90.5667 358.146 89.1333 359.48 87.8C359.88 87.6 360.68 87.2667 361.88 86.8C363.08 86.3333 364.146 86.1 365.08 86.1C367.613 86.1 369.68 86.8 371.28 88.2C372.88 89.5333 373.68 91.4667 373.68 94C373.68 94.7333 373.546 96.3 373.28 98.7C373.013 101.5 372.88 103.667 372.88 105.2C372.88 109.867 373.513 113.633 374.78 116.5C375.246 117.433 375.98 118.167 376.98 118.7C377.98 119.233 378.88 119.5 379.68 119.5C381.613 119.5 383.18 119.167 384.38 118.5C385.58 117.833 386.88 116.767 388.28 115.3C389.68 113.833 390.58 112.167 390.98 110.3C391.446 108.433 391.78 105.867 391.98 102.6C392.113 100.467 392.246 98.9 392.38 97.9C392.713 94.7 392.88 91.9667 392.88 89.7C392.88 88.2333 393.28 87.0333 394.08 86.1C394.88 85.1 395.98 84.6 397.38 84.6C398.18 84.6 399.08 84.8667 400.08 85.4C401.146 85.8667 401.846 86.4333 402.18 87.1C402.58 87.7667 402.78 88.8667 402.78 90.4C402.78 91.2 402.68 91.9667 402.48 92.7C402.013 94.3667 401.78 96.3667 401.78 98.7L401.88 103.9C401.88 108.633 402.213 112.133 402.88 114.4C403.213 115.467 403.68 116.567 404.28 117.7C404.88 118.767 405.446 119.667 405.98 120.4C407.313 121.867 408.18 122.9 408.58 123.5C408.98 124.033 409.18 124.567 409.18 125.1C409.18 125.9 408.78 126.667 407.98 127.4C407.246 128.067 406.446 128.4 405.58 128.4C403.113 128.4 400.98 127.567 399.18 125.9C397.38 124.233 396.046 122.067 395.18 119.4C392.913 122 390.813 124.1 388.88 125.7C387.546 126.633 385.913 127.333 383.98 127.8C382.046 128.2 380.113 128.4 378.18 128.4C375.58 128.4 372.946 127.333 370.28 125.2C367.613 123.067 365.813 120.6 364.88 117.8C364.813 117.667 364.613 117.133 364.28 116.2C364.013 115.267 363.88 113.867 363.88 112C363.88 109.533 364.013 106.433 364.28 102.7C364.48 100.3 364.58 98.1 364.58 96.1C364.58 95.5 364.346 95 363.88 94.6C363.48 94.2 363.013 94 362.48 94C362.08 94 361.613 94.0667 361.08 94.2C360.613 94.2667 360.113 94.3 359.58 94.3ZM431.553 124C431.553 125.133 431.12 126.133 430.253 127C429.386 127.867 428.32 128.3 427.053 128.3C425.053 128.3 423.586 127.933 422.653 127.2C421.72 126.4 421.253 124.967 421.253 122.9C421.253 120.433 421.186 117.2 421.053 113.2C420.92 109.867 420.853 107.067 420.853 104.8C420.853 103.733 420.92 102.333 421.053 100.6C421.186 99 421.253 97.8 421.253 97C421.053 95.7333 420.553 94.7 419.753 93.9C418.953 93.0333 417.92 92.6 416.653 92.6C416.053 92.6 415.553 92.3333 415.153 91.8C414.753 91.2 414.553 90.6 414.553 90C414.553 88.4667 415.153 87.3 416.353 86.5C417.62 85.7 419.12 85.3 420.853 85.3C424.453 85.3 426.953 87.4333 428.353 91.7C430.086 89.7 432.053 88.1 434.253 86.9C436.52 85.6333 438.686 85 440.753 85C443.22 85 445.453 85.6667 447.453 87C449.52 88.3333 450.553 90.1333 450.553 92.4C450.553 93.6667 449.986 94.9667 448.853 96.3C447.786 97.6333 446.686 98.3 445.553 98.3C444.953 98.3 444.42 98.1667 443.953 97.9C443.553 97.5667 443.053 97.1 442.453 96.5C441.786 95.8333 441.22 95.3667 440.753 95.1C440.286 94.7667 439.753 94.6 439.153 94.6C438.086 94.6 437.086 94.7667 436.153 95.1C435.22 95.4333 434.586 95.8333 434.253 96.3C433.186 97.9667 432.386 99.4667 431.853 100.8C431.386 102.133 431.153 103.567 431.153 105.1C431.153 106.233 431.12 107.133 431.053 107.8L430.953 113.5C430.953 114.367 430.986 115.333 431.053 116.4C431.12 117.467 431.186 118.267 431.253 118.8C431.453 120.6 431.553 122.333 431.553 124ZM494.499 128.4C492.233 128.4 490.499 128.067 489.299 127.4C488.099 126.667 486.799 125.333 485.399 123.4C483.666 124.933 481.066 126.167 477.599 127.1C474.199 128.033 471.266 128.5 468.799 128.5C464.733 128.5 461.433 127.4 458.899 125.2C456.433 122.933 455.199 119.633 455.199 115.3C455.199 113.433 455.699 111.733 456.699 110.2C457.766 108.6 459.133 107.2 460.799 106C462.666 104.733 464.866 103.733 467.399 103C469.999 102.267 472.366 101.9 474.499 101.9C478.099 101.9 481.299 102.233 484.099 102.9V102.8C484.099 99.2 483.199 96.7333 481.399 95.4C479.666 94 476.866 93.3 472.999 93.3C470.533 93.3 468.399 94.4 466.599 96.6C465.933 97.4667 464.533 97.9 462.399 97.9C461.333 97.9 460.533 97.4667 459.999 96.6C459.533 95.6667 459.299 94.7333 459.299 93.8C459.299 91.8667 460.099 90.2 461.699 88.8C463.366 87.4 465.366 86.3667 467.699 85.7C470.033 84.9667 472.199 84.6 474.199 84.6C476.133 84.6 478.433 85 481.099 85.8C483.766 86.6 485.933 87.6667 487.599 89C489.599 90.7333 491.133 92.7667 492.199 95.1C493.333 97.3667 493.899 99.8667 493.899 102.6C493.899 103.467 493.833 104.767 493.699 106.5C493.566 108.5 493.499 110.133 493.499 111.4C493.499 112 493.433 112.767 493.299 113.7C493.166 114.9 493.099 115.9 493.099 116.7C493.099 117.567 493.366 118.4 493.899 119.2C494.433 120 495.166 120.667 496.099 121.2C496.966 121.667 497.533 122.167 497.799 122.7C498.066 123.233 498.199 123.833 498.199 124.5C498.199 125.167 497.766 126 496.899 127C496.099 127.933 495.299 128.4 494.499 128.4ZM474.499 109.3C471.899 109.3 469.599 109.8 467.599 110.8C465.599 111.8 464.599 113.567 464.599 116.1C464.599 117.367 465.033 118.433 465.899 119.3C466.833 120.167 467.833 120.6 468.899 120.6C471.766 120.6 474.166 120.3 476.099 119.7C478.033 119.1 480.366 118 483.099 116.4C483.433 115.333 483.633 113.833 483.699 111.9C483.699 111.167 483.733 110.6 483.799 110.2C480.199 109.6 477.099 109.3 474.499 109.3ZM505.718 93.2C504.785 93.0667 504.018 92.7 503.418 92.1C502.885 91.4333 502.618 90.6333 502.618 89.7C502.618 88.5 503.085 87.5 504.018 86.7C504.218 86.5 504.551 86.3333 505.018 86.2C505.485 86 505.851 85.8333 506.118 85.7C507.585 85.2333 508.518 84.8667 508.918 84.6C510.451 83.6667 511.485 82.1333 512.018 80C512.551 77.4667 512.885 75.7333 513.018 74.8C513.151 73.3333 513.618 72.2333 514.418 71.5C515.285 70.7 516.351 70.3 517.618 70.3C519.285 70.3 520.451 70.7333 521.118 71.6C521.785 72.4667 522.118 74.0667 522.118 76.4C522.118 79.4667 521.385 82.3667 519.918 85.1C520.851 85.1 522.385 85.0333 524.518 84.9C527.718 84.7667 529.951 84.7 531.218 84.7C532.351 84.7 533.318 85 534.118 85.6C534.985 86.1333 535.418 86.9333 535.418 88C535.418 90.5333 534.251 92.0333 531.918 92.5C529.785 93.1 525.918 93.4667 520.318 93.6C519.851 100.133 519.618 105.3 519.618 109.1C519.618 111.433 519.718 113.1 519.918 114.1C520.318 116.167 520.985 117.7 521.918 118.7C522.918 119.633 524.385 120.1 526.318 120.1C527.251 120.1 528.651 119.867 530.518 119.4C531.651 119.067 532.551 118.9 533.218 118.9C534.085 118.9 534.751 119.2 535.218 119.8C535.685 120.4 535.918 121.2 535.918 122.2C535.918 124 534.751 125.5 532.418 126.7C530.085 127.833 527.318 128.4 524.118 128.4C522.118 128.4 520.151 127.933 518.218 127C516.285 126 514.651 124.8 513.318 123.4C513.051 123.267 512.651 122.533 512.118 121.2C511.651 119.867 511.185 118.4 510.718 116.8C510.518 116 510.418 114.067 510.418 111C510.418 108.067 510.618 103 511.018 95.8L511.118 93.6C510.651 93.6 509.785 93.5667 508.518 93.5C507.251 93.3667 506.318 93.2667 505.718 93.2ZM548.02 63.8C550.354 64 552.354 64.6333 554.02 65.7C555.754 66.7 556.62 68.2333 556.62 70.3C556.62 71.8333 555.92 73.0667 554.52 74C553.12 74.8667 551.387 75.3 549.32 75.3C547.387 75.3 546.054 74.8 545.32 73.8C544.587 72.8 544.22 71.7667 544.22 70.7C544.22 68.7667 544.454 67.1333 544.92 65.8C545.387 64.4 546.42 63.7333 548.02 63.8ZM546.02 105.1V102.2C546.02 98.8667 545.854 95.8333 545.52 93.1C545.254 90.3 545.087 88.5667 545.02 87.9C545.087 87.1667 545.587 86.4667 546.52 85.8C547.454 85.1333 548.287 84.8 549.02 84.8C550.287 84.8 551.554 85.0667 552.82 85.6C554.154 86.0667 554.987 86.6667 555.32 87.4C555.654 89.8667 555.82 91.7667 555.82 93.1C555.82 96.0333 555.954 100.833 556.22 107.5L556.32 111.4L556.52 115.2C556.587 116.267 556.654 117.533 556.72 119C556.787 120.467 556.82 122.133 556.82 124C556.82 125.267 556.187 126.333 554.92 127.2C553.72 128.067 552.454 128.5 551.12 128.5C549.187 128.5 547.82 128.067 547.02 127.2C546.287 126.333 545.92 124.967 545.92 123.1L546.02 105.1ZM591.711 102.3C591.911 101.767 592.611 99.8333 593.811 96.5C595.078 93.1667 596.244 90.6333 597.311 88.9C599.044 86.1667 600.578 84.8 601.911 84.8C603.778 84.8 605.211 85.1667 606.211 85.9C607.211 86.5667 607.711 87.5333 607.711 88.8C607.711 89.4 607.444 90.2333 606.911 91.3C606.444 92.3667 606.178 93 606.111 93.2C603.444 99.0667 601.044 105.367 598.911 112.1L596.811 119.9C596.011 122.433 594.644 124.5 592.711 126.1C590.778 127.633 588.511 128.4 585.911 128.4C583.578 128.4 581.411 127.333 579.411 125.2C578.211 123.333 576.944 120.967 575.611 118.1C574.344 115.233 573.244 112.433 572.311 109.7L568.811 99.2C568.078 97.1333 567.478 95.3667 567.011 93.9C566.611 92.4333 566.411 91.1 566.411 89.9C566.344 88.5 566.744 87.3667 567.611 86.5C568.478 85.6333 569.678 85.2 571.211 85.2C572.944 85.2 574.178 85.5667 574.911 86.3C575.644 86.9667 576.311 88.0333 576.911 89.5C577.178 91.0333 577.911 94.1667 579.111 98.9L579.811 101.7C580.411 103.967 581.178 106.267 582.111 108.6C583.044 110.933 583.978 113.167 584.911 115.3C584.778 114.967 585.244 116.067 586.311 118.6C586.978 116.667 587.744 114.3 588.611 111.5L591.711 102.3ZM614 106.8C614 104.267 614.467 101.733 615.4 99.2C616.333 96.6 617.567 94.2333 619.1 92.1C620.633 89.9667 623.067 88.2333 626.4 86.9C629.733 85.5 632.7 84.8 635.3 84.8C637.967 84.8 640.667 85.1667 643.4 85.9C646.2 86.6333 648.133 87.7667 649.2 89.3C651.667 92.7667 652.9 96.1667 652.9 99.5C652.9 101.3 652.5 102.833 651.7 104.1C650.967 105.367 649.9 106.733 648.5 108.2C647.367 109.4 645.567 110.2 643.1 110.6C640.7 111 638.3 111.2 635.9 111.2C634.367 111.2 632.5 111.067 630.3 110.8C628.1 110.467 625.967 110.067 623.9 109.6C624.033 110.933 624.367 112.233 624.9 113.5C625.433 114.767 626.067 115.733 626.8 116.4C628.133 117.667 629.5 118.467 630.9 118.8C632.367 119.133 634.233 119.3 636.5 119.3C638.9 119.3 641.133 118.9 643.2 118.1C644.867 117.5 646.233 117.2 647.3 117.2C648.567 117.2 649.533 117.6 650.2 118.4C650.867 119.133 651.2 120.1 651.2 121.3C651.2 122.967 650.233 124.333 648.3 125.4C646.367 126.467 644.133 127.267 641.6 127.8C639.133 128.267 637.133 128.5 635.6 128.5C632.467 128.5 629.433 127.933 626.5 126.8C623.567 125.667 621.133 124.067 619.2 122C617.6 120.133 616.333 117.9 615.4 115.3C614.467 112.633 614 109.8 614 106.8ZM635.8 93.3C634.333 93.3 632.867 93.6 631.4 94.2C629.933 94.7333 628.733 95.5 627.8 96.5C626.6 97.7667 625.767 98.8 625.3 99.6C624.9 100.333 624.633 101.367 624.5 102.7C626.167 103.233 629.633 103.5 634.9 103.5C637.767 103.5 639.967 103.067 641.5 102.2C643.1 101.333 643.9 100.2 643.9 98.8C643.9 97.4 643.033 96.1333 641.3 95C639.567 93.8667 637.733 93.3 635.8 93.3Z" fill="#2295FF"/>
<path d="M731.717 109.9C731.717 113.033 730.984 115.733 729.517 118C728.117 120.2 725.784 122.233 722.517 124.1C720.317 125.433 717.751 126.433 714.817 127.1C711.884 127.767 708.917 128.1 705.917 128.1C702.851 128.1 699.051 127.1 694.517 125.1C691.251 123.5 688.651 121.6 686.717 119.4C684.851 117.2 683.917 114.8 683.917 112.2C683.917 110.4 684.317 109.1 685.117 108.3C685.917 107.433 687.217 107 689.017 107C689.951 107 690.917 107.4 691.917 108.2C692.917 108.933 693.517 109.667 693.717 110.4C694.651 113.133 696.284 115.233 698.617 116.7C700.951 118.1 703.851 118.8 707.317 118.8C711.317 118.8 714.651 118.067 717.317 116.6C720.051 115.133 721.417 113.167 721.417 110.7C721.417 108.3 719.951 106.167 717.017 104.3C714.084 102.433 711.084 101.133 708.017 100.4C703.617 99.2 699.717 97.7667 696.317 96.1C692.784 94.3667 690.151 92.2333 688.417 89.7C686.684 87.1667 685.817 84.5 685.817 81.7C685.817 79.1 686.717 76.4667 688.517 73.8C690.317 71.0667 692.451 69.1 694.917 67.9C696.251 67.2333 698.517 66.5333 701.717 65.8C704.984 65 707.351 64.6 708.817 64.6C710.751 64.6 712.884 64.8333 715.217 65.3C717.551 65.7667 719.451 66.4333 720.917 67.3C723.851 68.9667 726.017 70.4667 727.417 71.8C728.817 73.1333 729.517 74.8 729.517 76.8C729.517 78 729.051 79.0667 728.117 80C727.251 80.9333 725.717 81.4 723.517 81.4C722.984 81.4 722.451 81.1667 721.917 80.7C721.384 80.2333 720.717 79.5333 719.917 78.6C718.851 77.2 717.817 76.2667 716.817 75.8C715.817 75.4667 714.351 75.1 712.417 74.7C710.551 74.3 708.884 74.1 707.417 74.1C705.817 74.1 704.151 74.4333 702.417 75.1C700.684 75.7667 699.217 76.7333 698.017 78C696.884 79.2 696.317 80.6 696.317 82.2C696.317 83.5333 696.917 84.7 698.117 85.7C699.384 86.6333 700.884 87.4 702.617 88C704.617 88.8 706.784 89.5 709.117 90.1C712.184 91.0333 714.684 91.9 716.617 92.7C718.617 93.4333 720.551 94.3667 722.417 95.5C725.684 97.4333 728.051 99.4333 729.517 101.5C730.984 103.5 731.717 106.3 731.717 109.9ZM739.17 94.3C738.636 94.3 738.136 94.1 737.67 93.7C737.27 93.2333 737.07 92.7 737.07 92.1C737.07 90.5667 737.736 89.1333 739.07 87.8C739.47 87.6 740.27 87.2667 741.47 86.8C742.67 86.3333 743.736 86.1 744.67 86.1C747.203 86.1 749.27 86.8 750.87 88.2C752.47 89.5333 753.27 91.4667 753.27 94C753.27 94.7333 753.136 96.3 752.87 98.7C752.603 101.5 752.47 103.667 752.47 105.2C752.47 109.867 753.103 113.633 754.37 116.5C754.836 117.433 755.57 118.167 756.57 118.7C757.57 119.233 758.47 119.5 759.27 119.5C761.203 119.5 762.77 119.167 763.97 118.5C765.17 117.833 766.47 116.767 767.87 115.3C769.27 113.833 770.17 112.167 770.57 110.3C771.036 108.433 771.37 105.867 771.57 102.6C771.703 100.467 771.836 98.9 771.97 97.9C772.303 94.7 772.47 91.9667 772.47 89.7C772.47 88.2333 772.87 87.0333 773.67 86.1C774.47 85.1 775.57 84.6 776.97 84.6C777.77 84.6 778.67 84.8667 779.67 85.4C780.736 85.8667 781.436 86.4333 781.77 87.1C782.17 87.7667 782.37 88.8667 782.37 90.4C782.37 91.2 782.27 91.9667 782.07 92.7C781.603 94.3667 781.37 96.3667 781.37 98.7L781.47 103.9C781.47 108.633 781.803 112.133 782.47 114.4C782.803 115.467 783.27 116.567 783.87 117.7C784.47 118.767 785.036 119.667 785.57 120.4C786.903 121.867 787.77 122.9 788.17 123.5C788.57 124.033 788.77 124.567 788.77 125.1C788.77 125.9 788.37 126.667 787.57 127.4C786.836 128.067 786.036 128.4 785.17 128.4C782.703 128.4 780.57 127.567 778.77 125.9C776.97 124.233 775.636 122.067 774.77 119.4C772.503 122 770.403 124.1 768.47 125.7C767.136 126.633 765.503 127.333 763.57 127.8C761.636 128.2 759.703 128.4 757.77 128.4C755.17 128.4 752.536 127.333 749.87 125.2C747.203 123.067 745.403 120.6 744.47 117.8C744.403 117.667 744.203 117.133 743.87 116.2C743.603 115.267 743.47 113.867 743.47 112C743.47 109.533 743.603 106.433 743.87 102.7C744.07 100.3 744.17 98.1 744.17 96.1C744.17 95.5 743.936 95 743.47 94.6C743.07 94.2 742.603 94 742.07 94C741.67 94 741.203 94.0667 740.67 94.2C740.203 94.2667 739.703 94.3 739.17 94.3ZM811.143 124C811.143 125.133 810.71 126.133 809.843 127C808.976 127.867 807.91 128.3 806.643 128.3C804.643 128.3 803.176 127.933 802.243 127.2C801.31 126.4 800.843 124.967 800.843 122.9C800.843 120.433 800.776 117.2 800.643 113.2C800.51 109.867 800.443 107.067 800.443 104.8C800.443 103.733 800.51 102.333 800.643 100.6C800.776 99 800.843 97.8 800.843 97C800.643 95.7333 800.143 94.7 799.343 93.9C798.543 93.0333 797.51 92.6 796.243 92.6C795.643 92.6 795.143 92.3333 794.743 91.8C794.343 91.2 794.143 90.6 794.143 90C794.143 88.4667 794.743 87.3 795.943 86.5C797.21 85.7 798.71 85.3 800.443 85.3C804.043 85.3 806.543 87.4333 807.943 91.7C809.676 89.7 811.643 88.1 813.843 86.9C816.11 85.6333 818.276 85 820.343 85C822.81 85 825.043 85.6667 827.043 87C829.11 88.3333 830.143 90.1333 830.143 92.4C830.143 93.6667 829.576 94.9667 828.443 96.3C827.376 97.6333 826.276 98.3 825.143 98.3C824.543 98.3 824.01 98.1667 823.543 97.9C823.143 97.5667 822.643 97.1 822.043 96.5C821.376 95.8333 820.81 95.3667 820.343 95.1C819.876 94.7667 819.343 94.6 818.743 94.6C817.676 94.6 816.676 94.7667 815.743 95.1C814.81 95.4333 814.176 95.8333 813.843 96.3C812.776 97.9667 811.976 99.4667 811.443 100.8C810.976 102.133 810.743 103.567 810.743 105.1C810.743 106.233 810.71 107.133 810.643 107.8L810.543 113.5C810.543 114.367 810.576 115.333 810.643 116.4C810.71 117.467 810.776 118.267 810.843 118.8C811.043 120.6 811.143 122.333 811.143 124ZM859.289 102.3C859.489 101.767 860.189 99.8333 861.389 96.5C862.656 93.1667 863.822 90.6333 864.889 88.9C866.622 86.1667 868.156 84.8 869.489 84.8C871.356 84.8 872.789 85.1667 873.789 85.9C874.789 86.5667 875.289 87.5333 875.289 88.8C875.289 89.4 875.022 90.2333 874.489 91.3C874.022 92.3667 873.756 93 873.689 93.2C871.022 99.0667 868.622 105.367 866.489 112.1L864.389 119.9C863.589 122.433 862.222 124.5 860.289 126.1C858.356 127.633 856.089 128.4 853.489 128.4C851.156 128.4 848.989 127.333 846.989 125.2C845.789 123.333 844.522 120.967 843.189 118.1C841.922 115.233 840.822 112.433 839.889 109.7L836.389 99.2C835.656 97.1333 835.056 95.3667 834.589 93.9C834.189 92.4333 833.989 91.1 833.989 89.9C833.922 88.5 834.322 87.3667 835.189 86.5C836.056 85.6333 837.256 85.2 838.789 85.2C840.522 85.2 841.756 85.5667 842.489 86.3C843.222 86.9667 843.889 88.0333 844.489 89.5C844.756 91.0333 845.489 94.1667 846.689 98.9L847.389 101.7C847.989 103.967 848.756 106.267 849.689 108.6C850.622 110.933 851.556 113.167 852.489 115.3C852.356 114.967 852.822 116.067 853.889 118.6C854.556 116.667 855.322 114.3 856.189 111.5L859.289 102.3ZM881.378 105.1C881.378 101.033 882.278 97.6667 884.078 95C885.878 92.2667 888.378 89.7 891.578 87.3C892.511 86.6333 894.078 86.0667 896.278 85.6C898.478 85.0667 900.411 84.8 902.078 84.8C904.078 84.8 906.178 85.2333 908.378 86.1C910.645 86.9 912.478 87.8333 913.878 88.9C916.345 90.7 918.045 92.8 918.978 95.2C919.911 97.5333 920.378 100.333 920.378 103.6C920.378 105 919.578 106.367 917.978 107.7C916.445 108.967 914.778 109.6 912.978 109.6L909.178 109.5C907.245 109.5 904.478 109.567 900.878 109.7L898.778 109.8C897.311 109.933 896.211 110 895.478 110C894.411 110 892.945 109.867 891.078 109.6C891.345 112.733 892.511 115.2 894.578 117C896.645 118.733 898.878 119.6 901.278 119.6C905.478 119.6 908.411 118.767 910.078 117.1C911.478 116.1 912.411 115.467 912.878 115.2C913.345 114.933 914.078 114.8 915.078 114.8C916.145 114.8 917.078 115.3 917.878 116.3C918.678 117.3 919.078 118.3 919.078 119.3C919.078 120.433 918.378 121.6 916.978 122.8C915.645 123.933 913.811 125.133 911.478 126.4C910.211 126.933 908.478 127.4 906.278 127.8C904.078 128.2 902.245 128.4 900.778 128.4C898.445 128.4 895.845 127.733 892.978 126.4C890.111 125 887.978 123.467 886.578 121.8C885.178 120.133 883.945 117.767 882.878 114.7C881.878 111.633 881.378 108.433 881.378 105.1ZM901.278 102.4C906.011 102.4 909.478 102.233 911.678 101.9C911.545 99.9667 910.945 98.4 909.878 97.2C908.811 95.9333 907.345 94.8667 905.478 94C904.878 93.7333 904.345 93.5333 903.878 93.4C903.411 93.2667 902.878 93.2 902.278 93.2C899.211 93.2 896.611 94.0333 894.478 95.7C892.411 97.3667 891.178 99.5 890.778 102.1C894.111 102.3 897.611 102.4 901.278 102.4ZM941.139 148.4C938.672 148.4 936.572 147.967 934.839 147.1C933.106 146.3 931.806 145.3 930.939 144.1C930.139 142.967 929.739 141.967 929.739 141.1C929.739 139.9 930.172 138.833 931.039 137.9C931.906 137.033 932.872 136.6 933.939 136.6C934.539 136.6 935.106 136.8 935.639 137.2C936.239 137.6 936.606 137.833 936.739 137.9C937.072 138.167 937.506 138.567 938.039 139.1C938.572 139.7 939.106 140 939.639 140C941.172 140 942.406 139.033 943.339 137.1C944.272 135.167 945.172 132.033 946.039 127.7C941.639 120.433 937.472 113.033 933.539 105.5C929.606 97.9667 927.639 92.8667 927.639 90.2C927.639 88.5333 928.239 87.3 929.439 86.5C930.639 85.7 932.006 85.3 933.539 85.3C934.672 85.3 935.572 85.5333 936.239 86C936.906 86.4 937.439 87.1667 937.839 88.3C939.706 93.9667 941.606 99.0333 943.539 103.5C945.472 107.9 947.706 112.333 950.239 116.8C951.439 114.133 952.872 109.767 954.539 103.7C955.539 100.167 956.406 97.3 957.139 95.1C957.872 92.8333 958.706 90.7667 959.639 88.9C960.239 87.7 960.972 86.7333 961.839 86C962.772 85.2667 963.772 84.9 964.839 84.9C966.039 84.9 967.272 85.3333 968.539 86.2C969.872 87 970.539 87.9667 970.539 89.1C970.539 89.4333 970.306 90.2333 969.839 91.5C967.239 97.3 964.939 102.9 962.939 108.3C960.939 113.633 959.072 119.5 957.339 125.9C956.272 129.3 955.139 132.6 953.939 135.8C952.739 139.067 951.906 141.1 951.439 141.9C950.039 143.767 948.539 145.3 946.939 146.5C945.339 147.767 943.406 148.4 941.139 148.4Z" fill="#31D8CE"/>
<path d="M313.224 216.08C311.358 216.08 309.631 215.776 308.044 215.17C306.481 214.54 305.116 213.665 303.949 212.545C302.806 211.401 301.908 210.071 301.254 208.555C300.601 207.038 300.274 205.37 300.274 203.55C300.274 201.73 300.601 200.061 301.254 198.545C301.908 197.028 302.818 195.71 303.984 194.59C305.151 193.446 306.516 192.571 308.079 191.965C309.666 191.335 311.393 191.02 313.259 191.02C315.149 191.02 316.888 191.346 318.474 192C320.084 192.63 321.449 193.575 322.569 194.835L320.294 197.04C319.361 196.06 318.311 195.336 317.144 194.87C315.978 194.38 314.729 194.135 313.399 194.135C312.023 194.135 310.739 194.368 309.549 194.835C308.383 195.301 307.368 195.955 306.504 196.795C305.641 197.635 304.964 198.638 304.474 199.805C304.008 200.948 303.774 202.196 303.774 203.55C303.774 204.903 304.008 206.163 304.474 207.33C304.964 208.473 305.641 209.465 306.504 210.305C307.368 211.145 308.383 211.798 309.549 212.265C310.739 212.731 312.023 212.965 313.399 212.965C314.729 212.965 315.978 212.731 317.144 212.265C318.311 211.775 319.361 211.028 320.294 210.025L322.569 212.23C321.449 213.49 320.084 214.446 318.474 215.1C316.888 215.753 315.138 216.08 313.224 216.08ZM341.231 216.01C339.365 216.01 337.708 215.601 336.261 214.785C334.815 213.968 333.671 212.848 332.831 211.425C331.991 209.978 331.571 208.345 331.571 206.525C331.571 204.681 331.991 203.048 332.831 201.625C333.671 200.201 334.815 199.093 336.261 198.3C337.708 197.483 339.365 197.075 341.231 197.075C343.075 197.075 344.72 197.483 346.166 198.3C347.636 199.093 348.78 200.201 349.596 201.625C350.436 203.025 350.856 204.658 350.856 206.525C350.856 208.368 350.436 210.001 349.596 211.425C348.78 212.848 347.636 213.968 346.166 214.785C344.72 215.601 343.075 216.01 341.231 216.01ZM341.231 213.07C342.421 213.07 343.483 212.801 344.416 212.265C345.373 211.728 346.12 210.97 346.656 209.99C347.193 208.986 347.461 207.831 347.461 206.525C347.461 205.195 347.193 204.051 346.656 203.095C346.12 202.115 345.373 201.356 344.416 200.82C343.483 200.283 342.421 200.015 341.231 200.015C340.041 200.015 338.98 200.283 338.046 200.82C337.113 201.356 336.366 202.115 335.806 203.095C335.246 204.051 334.966 205.195 334.966 206.525C334.966 207.831 335.246 208.986 335.806 209.99C336.366 210.97 337.113 211.728 338.046 212.265C338.98 212.801 340.041 213.07 341.231 213.07ZM385.708 197.075C387.201 197.075 388.52 197.366 389.663 197.95C390.806 198.533 391.693 199.42 392.323 200.61C392.976 201.8 393.303 203.305 393.303 205.125V215.8H389.943V205.51C389.943 203.713 389.523 202.36 388.683 201.45C387.843 200.54 386.665 200.085 385.148 200.085C384.028 200.085 383.048 200.318 382.208 200.785C381.368 201.251 380.715 201.94 380.248 202.85C379.805 203.76 379.583 204.891 379.583 206.245V215.8H376.223V205.51C376.223 203.713 375.803 202.36 374.963 201.45C374.146 200.54 372.968 200.085 371.428 200.085C370.331 200.085 369.363 200.318 368.523 200.785C367.683 201.251 367.03 201.94 366.563 202.85C366.096 203.76 365.863 204.891 365.863 206.245V215.8H362.503V197.25H365.723V202.185L365.198 200.925C365.781 199.711 366.68 198.766 367.893 198.09C369.106 197.413 370.518 197.075 372.128 197.075C373.901 197.075 375.43 197.518 376.713 198.405C377.996 199.268 378.836 200.586 379.233 202.36L377.868 201.8C378.428 200.376 379.408 199.233 380.808 198.37C382.208 197.506 383.841 197.075 385.708 197.075ZM429.691 197.075C431.184 197.075 432.502 197.366 433.646 197.95C434.789 198.533 435.676 199.42 436.306 200.61C436.959 201.8 437.286 203.305 437.286 205.125V215.8H433.926V205.51C433.926 203.713 433.506 202.36 432.666 201.45C431.826 200.54 430.647 200.085 429.131 200.085C428.011 200.085 427.031 200.318 426.191 200.785C425.351 201.251 424.697 201.94 424.231 202.85C423.787 203.76 423.566 204.891 423.566 206.245V215.8H420.206V205.51C420.206 203.713 419.786 202.36 418.946 201.45C418.129 200.54 416.951 200.085 415.411 200.085C414.314 200.085 413.346 200.318 412.506 200.785C411.666 201.251 411.012 201.94 410.546 202.85C410.079 203.76 409.846 204.891 409.846 206.245V215.8H406.486V197.25H409.706V202.185L409.181 200.925C409.764 199.711 410.662 198.766 411.876 198.09C413.089 197.413 414.501 197.075 416.111 197.075C417.884 197.075 419.412 197.518 420.696 198.405C421.979 199.268 422.819 200.586 423.216 202.36L421.851 201.8C422.411 200.376 423.391 199.233 424.791 198.37C426.191 197.506 427.824 197.075 429.691 197.075ZM450.468 215.8V197.25H453.828V215.8H450.468ZM452.148 193.68C451.495 193.68 450.946 193.47 450.503 193.05C450.083 192.63 449.873 192.116 449.873 191.51C449.873 190.88 450.083 190.355 450.503 189.935C450.946 189.515 451.495 189.305 452.148 189.305C452.801 189.305 453.338 189.515 453.758 189.935C454.201 190.331 454.423 190.833 454.423 191.44C454.423 192.07 454.213 192.606 453.793 193.05C453.373 193.47 452.825 193.68 452.148 193.68ZM473.613 216.01C471.747 216.01 470.3 215.508 469.273 214.505C468.247 213.501 467.733 212.066 467.733 210.2V193.19H471.093V210.06C471.093 211.063 471.338 211.833 471.828 212.37C472.342 212.906 473.065 213.175 473.998 213.175C475.048 213.175 475.923 212.883 476.623 212.3L477.673 214.715C477.16 215.158 476.542 215.485 475.818 215.695C475.118 215.905 474.383 216.01 473.613 216.01ZM464.583 200.015V197.25H476.413V200.015H464.583ZM494.661 216.01C492.795 216.01 491.348 215.508 490.321 214.505C489.295 213.501 488.781 212.066 488.781 210.2V193.19H492.141V210.06C492.141 211.063 492.386 211.833 492.876 212.37C493.39 212.906 494.113 213.175 495.046 213.175C496.096 213.175 496.971 212.883 497.671 212.3L498.721 214.715C498.208 215.158 497.59 215.485 496.866 215.695C496.166 215.905 495.431 216.01 494.661 216.01ZM485.631 200.015V197.25H497.461V200.015H485.631ZM517.428 216.01C515.445 216.01 513.695 215.601 512.178 214.785C510.685 213.968 509.518 212.848 508.678 211.425C507.861 210.001 507.453 208.368 507.453 206.525C507.453 204.681 507.85 203.048 508.643 201.625C509.46 200.201 510.568 199.093 511.968 198.3C513.391 197.483 514.99 197.075 516.763 197.075C518.56 197.075 520.146 197.471 521.523 198.265C522.9 199.058 523.973 200.178 524.743 201.625C525.536 203.048 525.933 204.716 525.933 206.63C525.933 206.77 525.921 206.933 525.898 207.12C525.898 207.306 525.886 207.481 525.863 207.645H510.078V205.23H524.113L522.748 206.07C522.771 204.88 522.526 203.818 522.013 202.885C521.5 201.951 520.788 201.228 519.878 200.715C518.991 200.178 517.953 199.91 516.763 199.91C515.596 199.91 514.558 200.178 513.648 200.715C512.738 201.228 512.026 201.963 511.513 202.92C511 203.853 510.743 204.926 510.743 206.14V206.7C510.743 207.936 511.023 209.045 511.583 210.025C512.166 210.981 512.971 211.728 513.998 212.265C515.025 212.801 516.203 213.07 517.533 213.07C518.63 213.07 519.621 212.883 520.508 212.51C521.418 212.136 522.211 211.576 522.888 210.83L524.743 213C523.903 213.98 522.853 214.726 521.593 215.24C520.356 215.753 518.968 216.01 517.428 216.01ZM545.264 216.01C543.467 216.01 541.857 215.613 540.434 214.82C539.034 214.026 537.925 212.918 537.109 211.495C536.292 210.071 535.884 208.415 535.884 206.525C535.884 204.635 536.292 202.99 537.109 201.59C537.925 200.166 539.034 199.058 540.434 198.265C541.857 197.471 543.467 197.075 545.264 197.075C546.827 197.075 548.239 197.425 549.499 198.125C550.759 198.825 551.762 199.875 552.509 201.275C553.279 202.675 553.664 204.425 553.664 206.525C553.664 208.625 553.29 210.375 552.544 211.775C551.82 213.175 550.829 214.236 549.569 214.96C548.309 215.66 546.874 216.01 545.264 216.01ZM545.544 213.07C546.71 213.07 547.76 212.801 548.694 212.265C549.65 211.728 550.397 210.97 550.934 209.99C551.494 208.986 551.774 207.831 551.774 206.525C551.774 205.195 551.494 204.051 550.934 203.095C550.397 202.115 549.65 201.356 548.694 200.82C547.76 200.283 546.71 200.015 545.544 200.015C544.354 200.015 543.292 200.283 542.359 200.82C541.425 201.356 540.679 202.115 540.119 203.095C539.559 204.051 539.279 205.195 539.279 206.525C539.279 207.831 539.559 208.986 540.119 209.99C540.679 210.97 541.425 211.728 542.359 212.265C543.292 212.801 544.354 213.07 545.544 213.07ZM551.879 215.8V210.795L552.089 206.49L551.739 202.185V189.83H555.099V215.8H551.879ZM590.211 215.8V194.345H581.811V191.3H602.076V194.345H593.676V215.8H590.211ZM618.429 216.01C616.562 216.01 614.905 215.601 613.459 214.785C612.012 213.968 610.869 212.848 610.029 211.425C609.189 209.978 608.769 208.345 608.769 206.525C608.769 204.681 609.189 203.048 610.029 201.625C610.869 200.201 612.012 199.093 613.459 198.3C614.905 197.483 616.562 197.075 618.429 197.075C620.272 197.075 621.917 197.483 623.364 198.3C624.834 199.093 625.977 200.201 626.794 201.625C627.634 203.025 628.054 204.658 628.054 206.525C628.054 208.368 627.634 210.001 626.794 211.425C625.977 212.848 624.834 213.968 623.364 214.785C621.917 215.601 620.272 216.01 618.429 216.01ZM618.429 213.07C619.619 213.07 620.68 212.801 621.614 212.265C622.57 211.728 623.317 210.97 623.854 209.99C624.39 208.986 624.659 207.831 624.659 206.525C624.659 205.195 624.39 204.051 623.854 203.095C623.317 202.115 622.57 201.356 621.614 200.82C620.68 200.283 619.619 200.015 618.429 200.015C617.239 200.015 616.177 200.283 615.244 200.82C614.31 201.356 613.564 202.115 613.004 203.095C612.444 204.051 612.164 205.195 612.164 206.525C612.164 207.831 612.444 208.986 613.004 209.99C613.564 210.97 614.31 211.728 615.244 212.265C616.177 212.801 617.239 213.07 618.429 213.07ZM667.545 216.08C665.678 216.08 663.951 215.776 662.365 215.17C660.801 214.54 659.436 213.665 658.27 212.545C657.126 211.401 656.228 210.071 655.575 208.555C654.921 207.038 654.595 205.37 654.595 203.55C654.595 201.73 654.921 200.061 655.575 198.545C656.228 197.028 657.138 195.71 658.305 194.59C659.471 193.446 660.836 192.571 662.4 191.965C663.986 191.335 665.713 191.02 667.58 191.02C669.47 191.02 671.208 191.346 672.795 192C674.405 192.63 675.77 193.575 676.89 194.835L674.615 197.04C673.681 196.06 672.631 195.336 671.465 194.87C670.298 194.38 669.05 194.135 667.72 194.135C666.343 194.135 665.06 194.368 663.87 194.835C662.703 195.301 661.688 195.955 660.825 196.795C659.961 197.635 659.285 198.638 658.795 199.805C658.328 200.948 658.095 202.196 658.095 203.55C658.095 204.903 658.328 206.163 658.795 207.33C659.285 208.473 659.961 209.465 660.825 210.305C661.688 211.145 662.703 211.798 663.87 212.265C665.06 212.731 666.343 212.965 667.72 212.965C669.05 212.965 670.298 212.731 671.465 212.265C672.631 211.775 673.681 211.028 674.615 210.025L676.89 212.23C675.77 213.49 674.405 214.446 672.795 215.1C671.208 215.753 669.458 216.08 667.545 216.08ZM695.552 216.01C693.685 216.01 692.028 215.601 690.582 214.785C689.135 213.968 687.992 212.848 687.152 211.425C686.312 209.978 685.892 208.345 685.892 206.525C685.892 204.681 686.312 203.048 687.152 201.625C687.992 200.201 689.135 199.093 690.582 198.3C692.028 197.483 693.685 197.075 695.552 197.075C697.395 197.075 699.04 197.483 700.487 198.3C701.957 199.093 703.1 200.201 703.917 201.625C704.757 203.025 705.177 204.658 705.177 206.525C705.177 208.368 704.757 210.001 703.917 211.425C703.1 212.848 701.957 213.968 700.487 214.785C699.04 215.601 697.395 216.01 695.552 216.01ZM695.552 213.07C696.742 213.07 697.803 212.801 698.737 212.265C699.693 211.728 700.44 210.97 700.977 209.99C701.513 208.986 701.782 207.831 701.782 206.525C701.782 205.195 701.513 204.051 700.977 203.095C700.44 202.115 699.693 201.356 698.737 200.82C697.803 200.283 696.742 200.015 695.552 200.015C694.362 200.015 693.3 200.283 692.367 200.82C691.433 201.356 690.687 202.115 690.127 203.095C689.567 204.051 689.287 205.195 689.287 206.525C689.287 207.831 689.567 208.986 690.127 209.99C690.687 210.97 691.433 211.728 692.367 212.265C693.3 212.801 694.362 213.07 695.552 213.07ZM740.028 197.075C741.522 197.075 742.84 197.366 743.983 197.95C745.127 198.533 746.013 199.42 746.643 200.61C747.297 201.8 747.623 203.305 747.623 205.125V215.8H744.263V205.51C744.263 203.713 743.843 202.36 743.003 201.45C742.163 200.54 740.985 200.085 739.468 200.085C738.348 200.085 737.368 200.318 736.528 200.785C735.688 201.251 735.035 201.94 734.568 202.85C734.125 203.76 733.903 204.891 733.903 206.245V215.8H730.543V205.51C730.543 203.713 730.123 202.36 729.283 201.45C728.467 200.54 727.288 200.085 725.748 200.085C724.652 200.085 723.683 200.318 722.843 200.785C722.003 201.251 721.35 201.94 720.883 202.85C720.417 203.76 720.183 204.891 720.183 206.245V215.8H716.823V197.25H720.043V202.185L719.518 200.925C720.102 199.711 721 198.766 722.213 198.09C723.427 197.413 724.838 197.075 726.448 197.075C728.222 197.075 729.75 197.518 731.033 198.405C732.317 199.268 733.157 200.586 733.553 202.36L732.188 201.8C732.748 200.376 733.728 199.233 735.128 198.37C736.528 197.506 738.162 197.075 740.028 197.075ZM784.011 197.075C785.504 197.075 786.823 197.366 787.966 197.95C789.109 198.533 789.996 199.42 790.626 200.61C791.279 201.8 791.606 203.305 791.606 205.125V215.8H788.246V205.51C788.246 203.713 787.826 202.36 786.986 201.45C786.146 200.54 784.968 200.085 783.451 200.085C782.331 200.085 781.351 200.318 780.511 200.785C779.671 201.251 779.018 201.94 778.551 202.85C778.108 203.76 777.886 204.891 777.886 206.245V215.8H774.526V205.51C774.526 203.713 774.106 202.36 773.266 201.45C772.449 200.54 771.271 200.085 769.731 200.085C768.634 200.085 767.666 200.318 766.826 200.785C765.986 201.251 765.333 201.94 764.866 202.85C764.399 203.76 764.166 204.891 764.166 206.245V215.8H760.806V197.25H764.026V202.185L763.501 200.925C764.084 199.711 764.983 198.766 766.196 198.09C767.409 197.413 768.821 197.075 770.431 197.075C772.204 197.075 773.733 197.518 775.016 198.405C776.299 199.268 777.139 200.586 777.536 202.36L776.171 201.8C776.731 200.376 777.711 199.233 779.111 198.37C780.511 197.506 782.144 197.075 784.011 197.075ZM812.593 216.01C811.007 216.01 809.607 215.718 808.393 215.135C807.203 214.551 806.27 213.665 805.593 212.475C804.94 211.261 804.613 209.745 804.613 207.925V197.25H807.973V207.54C807.973 209.36 808.405 210.725 809.268 211.635C810.155 212.545 811.392 213 812.978 213C814.145 213 815.16 212.766 816.023 212.3C816.887 211.81 817.552 211.11 818.018 210.2C818.485 209.266 818.718 208.146 818.718 206.84V197.25H822.078V215.8H818.893V210.795L819.418 212.125C818.812 213.361 817.902 214.318 816.688 214.995C815.475 215.671 814.11 216.01 812.593 216.01ZM845.38 197.075C846.896 197.075 848.226 197.366 849.37 197.95C850.536 198.533 851.446 199.42 852.1 200.61C852.753 201.8 853.08 203.305 853.08 205.125V215.8H849.72V205.51C849.72 203.713 849.276 202.36 848.39 201.45C847.526 200.54 846.301 200.085 844.715 200.085C843.525 200.085 842.486 200.318 841.6 200.785C840.713 201.251 840.025 201.94 839.535 202.85C839.068 203.76 838.835 204.891 838.835 206.245V215.8H835.475V197.25H838.695V202.255L838.17 200.925C838.776 199.711 839.71 198.766 840.97 198.09C842.23 197.413 843.7 197.075 845.38 197.075ZM866.298 215.8V197.25H869.658V215.8H866.298ZM867.978 193.68C867.325 193.68 866.776 193.47 866.333 193.05C865.913 192.63 865.703 192.116 865.703 191.51C865.703 190.88 865.913 190.355 866.333 189.935C866.776 189.515 867.325 189.305 867.978 189.305C868.631 189.305 869.168 189.515 869.588 189.935C870.031 190.331 870.253 190.833 870.253 191.44C870.253 192.07 870.043 192.606 869.623 193.05C869.203 193.47 868.655 193.68 867.978 193.68ZM889.443 216.01C887.577 216.01 886.13 215.508 885.103 214.505C884.077 213.501 883.563 212.066 883.563 210.2V193.19H886.923V210.06C886.923 211.063 887.168 211.833 887.658 212.37C888.172 212.906 888.895 213.175 889.828 213.175C890.878 213.175 891.753 212.883 892.453 212.3L893.503 214.715C892.99 215.158 892.372 215.485 891.648 215.695C890.948 215.905 890.213 216.01 889.443 216.01ZM880.413 200.015V197.25H892.243V200.015H880.413ZM904.566 215.8V197.25H907.926V215.8H904.566ZM906.246 193.68C905.592 193.68 905.044 193.47 904.601 193.05C904.181 192.63 903.971 192.116 903.971 191.51C903.971 190.88 904.181 190.355 904.601 189.935C905.044 189.515 905.592 189.305 906.246 189.305C906.899 189.305 907.436 189.515 907.856 189.935C908.299 190.331 908.521 190.833 908.521 191.44C908.521 192.07 908.311 192.606 907.891 193.05C907.471 193.47 906.922 193.68 906.246 193.68ZM929.601 216.01C927.618 216.01 925.868 215.601 924.351 214.785C922.858 213.968 921.691 212.848 920.851 211.425C920.034 210.001 919.626 208.368 919.626 206.525C919.626 204.681 920.023 203.048 920.816 201.625C921.633 200.201 922.741 199.093 924.141 198.3C925.564 197.483 927.163 197.075 928.936 197.075C930.733 197.075 932.319 197.471 933.696 198.265C935.073 199.058 936.146 200.178 936.916 201.625C937.709 203.048 938.106 204.716 938.106 206.63C938.106 206.77 938.094 206.933 938.071 207.12C938.071 207.306 938.059 207.481 938.036 207.645H922.251V205.23H936.286L934.921 206.07C934.944 204.88 934.699 203.818 934.186 202.885C933.673 201.951 932.961 201.228 932.051 200.715C931.164 200.178 930.126 199.91 928.936 199.91C927.769 199.91 926.731 200.178 925.821 200.715C924.911 201.228 924.199 201.963 923.686 202.92C923.173 203.853 922.916 204.926 922.916 206.14V206.7C922.916 207.936 923.196 209.045 923.756 210.025C924.339 210.981 925.144 211.728 926.171 212.265C927.198 212.801 928.376 213.07 929.706 213.07C930.803 213.07 931.794 212.883 932.681 212.51C933.591 212.136 934.384 211.576 935.061 210.83L936.916 213C936.076 213.98 935.026 214.726 933.766 215.24C932.529 215.753 931.141 216.01 929.601 216.01ZM955.092 216.01C953.552 216.01 952.082 215.8 950.682 215.38C949.305 214.96 948.22 214.446 947.427 213.84L948.827 211.18C949.62 211.716 950.6 212.171 951.767 212.545C952.933 212.918 954.123 213.105 955.337 213.105C956.9 213.105 958.02 212.883 958.697 212.44C959.397 211.996 959.747 211.378 959.747 210.585C959.747 210.001 959.537 209.546 959.117 209.22C958.697 208.893 958.137 208.648 957.437 208.485C956.76 208.321 956.002 208.181 955.162 208.065C954.322 207.925 953.482 207.761 952.642 207.575C951.802 207.365 951.032 207.085 950.332 206.735C949.632 206.361 949.072 205.86 948.652 205.23C948.232 204.576 948.022 203.713 948.022 202.64C948.022 201.52 948.337 200.54 948.967 199.7C949.597 198.86 950.483 198.218 951.627 197.775C952.793 197.308 954.17 197.075 955.757 197.075C956.97 197.075 958.195 197.226 959.432 197.53C960.692 197.81 961.718 198.218 962.512 198.755L961.077 201.415C960.237 200.855 959.362 200.47 958.452 200.26C957.542 200.05 956.632 199.945 955.722 199.945C954.252 199.945 953.155 200.19 952.432 200.68C951.708 201.146 951.347 201.753 951.347 202.5C951.347 203.13 951.557 203.62 951.977 203.97C952.42 204.296 952.98 204.553 953.657 204.74C954.357 204.926 955.127 205.09 955.967 205.23C956.807 205.346 957.647 205.51 958.487 205.72C959.327 205.906 960.085 206.175 960.762 206.525C961.462 206.875 962.022 207.365 962.442 207.995C962.885 208.625 963.107 209.465 963.107 210.515C963.107 211.635 962.78 212.603 962.127 213.42C961.473 214.236 960.552 214.878 959.362 215.345C958.172 215.788 956.748 216.01 955.092 216.01Z" fill="#181818"/>
<path d="M124.99 135.643L66.2544 33.9103L183.725 33.9103L124.99 135.643Z" fill="#73C4FF"/>
<path d="M120.988 135.954L3.22631 135.454L62.5396 33.7201L120.988 135.954Z" fill="#309BFD"/>
<path d="M123.623 139.413L182.359 241.145H64.8884L123.623 139.413Z" fill="#31D8CE"/>
<path d="M120.794 139.006L61.4812 240.741L3.03328 138.507L120.794 139.006Z" fill="#AAD6FF"/>
<path d="M191.625 168.724C177.942 153.87 169.572 148.537 153.761 142.802C169.395 140.238 176.005 141.456 191.625 147.734C191.625 147.734 210.895 122.201 224.541 110.83C239.946 97.9954 257.801 90.6943 257.801 90.6943C257.801 90.6943 239.91 101.646 223.466 121.488C209.679 138.123 191.625 168.724 191.625 168.724Z" fill="#309BFD"/>
</g>
<defs>
<clipPath id="clip0_7999_3595">
<rect width="1001" height="275" fill="white"/>
</clipPath>
</defs>
</svg>
